<svg xmlns="http://www.w3.org/2000/svg" viewBox="340 300 535 215">
  
  <path fill="#6366f1" d="M 356.50 506.04 C355.40,505.58 353.49,504.24 352.25,503.06 C348.20,499.21 349.15,495.76 360.93,471.51 C366.94,459.13 372.12,448.21 372.42,447.24 C372.82,445.98 372.16,445.12 370.10,444.20 C366.50,442.61 364.55,438.32 365.85,434.89 C367.35,430.94 369.85,429.55 375.67,429.40 C378.64,429.33 381.24,429.10 381.45,428.88 C381.66,428.67 384.96,421.98 388.79,414.00 C426.22,336.04 438.70,311.24 441.39,309.48 C444.96,307.14 451.47,308.01 454.73,311.27 C459.20,315.75 458.82,320.14 452.94,332.00 C442.12,353.82 406.00,428.43 406.00,428.95 C406.00,429.25 413.98,429.36 423.73,429.18 C433.49,429.01 442.94,429.14 444.74,429.48 C451.81,430.80 454.57,438.84 449.37,442.93 C446.86,444.90 445.50,445.00 422.06,445.00 L 397.38 445.00 L 385.94 468.69 C379.65,481.72 373.38,494.65 372.00,497.42 C368.23,505.03 362.16,508.41 356.50,506.04 Z M 474.97 463.71 C473.89,461.95 473.01,460.22 473.00,459.87 C473.00,459.25 467.84,448.24 454.29,420.00 C450.47,412.02 445.14,400.84 442.46,395.13 L 437.59 384.77 L 443.54 373.40 L 449.50 362.04 L 453.75 370.77 C456.09,375.57 461.00,385.80 464.66,393.50 C468.32,401.20 474.66,414.48 478.75,423.00 C488.13,442.56 499.00,465.74 499.00,466.17 C499.00,466.35 494.03,466.60 487.96,466.71 L 476.92 466.92 L 474.97 463.71 Z"></path>
  
  <path fill="#1e1b4b" transform="translate(-90, 0)" d="M 613.00 427.57 L 613.00 388.14 L 622.75 387.82 C628.11,387.64 632.72,387.64 632.98,387.82 C633.25,387.99 633.33,390.80 633.17,394.07 C632.99,397.77 633.28,400.00 633.94,400.00 C634.52,400.00 635.00,399.43 635.00,398.73 C635.00,396.34 641.35,389.75 645.43,387.89 C647.85,386.79 651.83,386.04 655.25,386.02 L 661.00 386.00 L 661.00 389.35 C661.00,391.20 660.71,395.46 660.36,398.81 L 659.72 404.92 L 653.59 404.82 C646.42,404.70 642.24,406.49 638.65,411.25 C634.64,416.57 634.01,421.08 634.01,444.75 L 634.00 467.00 L 623.50 467.00 L 613.00 467.00 L 613.00 427.57 Z M 682.17 467.52 C672.04,464.35 666.20,457.29 665.27,447.08 C664.39,437.35 667.94,430.46 676.36,425.54 C680.25,423.26 686.73,421.83 705.33,419.11 C713.48,417.92 715.00,416.86 715.00,412.31 C715.00,407.58 713.44,405.08 709.45,403.42 C702.08,400.34 692.99,402.37 688.85,408.02 L 686.50 411.23 L 677.71 410.74 C672.87,410.47 668.71,410.04 668.45,409.79 C667.58,408.92 670.50,402.14 673.70,397.62 C683.65,383.53 714.32,381.80 727.97,394.57 C735.56,401.67 736.00,404.05 736.00,438.11 L 736.00 467.00 L 726.50 467.00 C717.32,467.00 717.00,466.92 716.99,464.75 C716.98,463.51 716.70,461.48 716.37,460.23 C715.78,458.03 715.64,458.08 711.47,461.92 C704.44,468.40 692.39,470.71 682.17,467.52 Z M 707.00 451.45 C710.56,449.67 712.98,446.72 714.55,442.32 C715.92,438.49 716.46,431.79 715.48,430.81 C715.19,430.52 713.05,430.88 710.73,431.59 C708.40,432.31 703.22,433.41 699.21,434.05 C689.86,435.52 686.00,438.42 686.00,443.98 C686.00,448.23 688.48,451.90 693.02,453.00 C697.10,453.98 703.46,453.29 707.00,451.45 Z M 786.99 468.13 C782.06,466.51 778.30,464.07 774.18,459.83 L 770.00 455.52 L 770.00 461.26 L 770.00 467.00 L 759.50 467.00 L 749.00 467.00 L 749.00 413.00 L 749.00 359.00 L 759.50 359.00 L 770.00 359.00 L 770.00 378.70 L 770.00 398.39 L 773.25 394.84 C778.82,388.76 784.23,386.60 794.00,386.55 C800.81,386.51 803.49,386.96 807.50,388.80 C820.62,394.83 827.96,409.07 827.97,428.50 C827.98,452.43 816.01,467.77 796.67,468.63 C792.73,468.80 788.37,468.58 786.99,468.13 Z M 794.68 450.93 C801.88,448.21 806.13,440.80 806.79,429.87 C807.77,413.49 800.88,403.71 788.37,403.71 C781.12,403.71 776.85,406.58 773.30,413.80 C768.18,424.24 770.02,440.17 777.13,446.96 C781.97,451.60 788.83,453.15 794.68,450.93 Z M 864.02 467.46 C850.15,463.57 841.03,453.58 837.86,438.78 C836.25,431.27 837.30,416.71 839.97,409.72 C843.04,401.64 851.10,393.15 859.22,389.42 C864.81,386.85 866.60,386.53 875.50,386.52 C884.22,386.51 886.22,386.85 891.12,389.14 C905.18,395.72 912.92,409.40 912.98,427.75 L 913.00 433.00 L 884.92 433.00 L 856.84 433.00 L 857.54 436.25 C859.14,443.64 861.29,447.23 865.85,450.12 C873.93,455.25 884.86,453.63 890.79,446.44 L 893.76 442.83 L 902.88 443.54 C913.25,444.36 913.33,444.45 909.55,451.91 C906.48,457.95 899.35,464.33 893.19,466.52 C886.54,468.89 870.94,469.40 864.02,467.46 Z M 893.00 417.21 C893.00,413.35 888.51,406.51 884.50,404.27 C879.84,401.66 872.30,401.27 868.20,403.41 C864.57,405.30 860.37,409.87 859.06,413.32 C856.86,419.14 856.47,419.00 875.50,419.00 C891.64,419.00 893.00,418.86 893.00,417.21 Z M 923.00 413.00 L 923.00 359.00 L 933.50 359.00 L 944.00 359.00 L 944.00 413.00 L 944.00 467.00 L 933.50 467.00 L 923.00 467.00 L 923.00 413.00 Z"></path>
</svg>