<svg xmlns="http://www.w3.org/2000/svg" viewBox="340 300 175 215">
  
  <path fill="#6366f1" d="M 356.50 506.04 C355.40,505.58 353.49,504.24 352.25,503.06 C348.20,499.21 349.15,495.76 360.93,471.51 C366.94,459.13 372.12,448.21 372.42,447.24 C372.82,445.98 372.16,445.12 370.10,444.20 C366.50,442.61 364.55,438.32 365.85,434.89 C367.35,430.94 369.85,429.55 375.67,429.40 C378.64,429.33 381.24,429.10 381.45,428.88 C381.66,428.67 384.96,421.98 388.79,414.00 C426.22,336.04 438.70,311.24 441.39,309.48 C444.96,307.14 451.47,308.01 454.73,311.27 C459.20,315.75 458.82,320.14 452.94,332.00 C442.12,353.82 406.00,428.43 406.00,428.95 C406.00,429.25 413.98,429.36 423.73,429.18 C433.49,429.01 442.94,429.14 444.74,429.48 C451.81,430.80 454.57,438.84 449.37,442.93 C446.86,444.90 445.50,445.00 422.06,445.00 L 397.38 445.00 L 385.94 468.69 C379.65,481.72 373.38,494.65 372.00,497.42 C368.23,505.03 362.16,508.41 356.50,506.04 Z M 474.97 463.71 C473.89,461.95 473.01,460.22 473.00,459.87 C473.00,459.25 467.84,448.24 454.29,420.00 C450.47,412.02 445.14,400.84 442.46,395.13 L 437.59 384.77 L 443.54 373.40 L 449.50 362.04 L 453.75 370.77 C456.09,375.57 461.00,385.80 464.66,393.50 C468.32,401.20 474.66,414.48 478.75,423.00 C488.13,442.56 499.00,465.74 499.00,466.17 C499.00,466.35 494.03,466.60 487.96,466.71 L 476.92 466.92 L 474.97 463.71 Z"></path>
</svg>